<!-- Generated by IcoMoon.io -->
<svg version="1.1" xmlns="http://www.w3.org/2000/svg" width="32" height="32" viewBox="0 0 32 32">
<path fill="#000" d="M30 16c0 7.732-6.268 14-14 14s-14-6.268-14-14c0-7.732 6.268-14 14-14s14 6.268 14 14z"></path>
<path fill="#fff" d="M22.987 10.209c0.125-0.805-0.641-1.441-1.357-1.127l-14.264 6.263c-0.514 0.226-0.476 1.003 0.057 1.173l2.942 0.937c0.562 0.179 1.169 0.086 1.66-0.252l6.632-4.582c0.2-0.138 0.418 0.146 0.247 0.322l-4.774 4.922c-0.463 0.477-0.371 1.287 0.186 1.636l5.345 3.352c0.599 0.376 1.371-0.002 1.483-0.726l1.845-11.917z"></path>
</svg>
