<!-- Generated by IcoMoon.io -->
<svg version="1.1" xmlns="http://www.w3.org/2000/svg" width="32" height="32" viewBox="0 0 32 32">
<path fill="#ce1312" d="M12.696 20.18l-0.001-9.055 8.646 4.543-8.645 4.512zM31.68 9.556c0 0-0.313-2.221-1.272-3.199-1.217-1.284-2.581-1.29-3.206-1.365-4.478-0.326-11.195-0.326-11.195-0.326h-0.014c0 0-6.717 0-11.195 0.326-0.626 0.075-1.989 0.081-3.207 1.365-0.959 0.978-1.271 3.199-1.271 3.199s-0.32 2.608-0.32 5.216v2.445c0 2.608 0.32 5.216 0.32 5.216s0.312 2.221 1.271 3.199c1.218 1.284 2.817 1.244 3.529 1.378 2.56 0.248 10.88 0.324 10.88 0.324s6.724-0.010 11.202-0.336c0.625-0.076 1.989-0.082 3.206-1.366 0.959-0.978 1.272-3.199 1.272-3.199s0.32-2.607 0.32-5.216v-2.445c0-2.607-0.32-5.216-0.32-5.216v0z"></path>
</svg>
